<svg xmlns="http://www.w3.org/2000/svg" xmlns:xlink="http://www.w3.org/1999/xlink" width="800" height="600" viewBox="0 0 800 600">
  <defs>
    <linearGradient id="gradient-c" x1="50%" x2="50%" y1="0%" y2="100%">
      <stop offset="0%" stop-color="#E952FF"/>
      <stop offset="100%" stop-color="#0707A9"/>
    </linearGradient>
    <path id="gradient-b" d="M-102.011719,213.710937 C-102.011719,213.710937 115.492187,106.777344 124.195312,65.3984375 C132.898438,24.0195312 298.867187,-123.199219 298.867187,-123.199219 L134.003906,-153 C134.003906,-153 159.816406,-75.109375 70.8515625,-45.1796875 C-18.1132813,-15.25 -112.007812,98.3828125 -117,127.628906 C-121.992188,156.875 -102.011719,213.710937 -102.011719,213.710937 Z"/>
    <filter id="gradient-a" width="124%" height="127.3%" x="-12%" y="-20.5%" filterUnits="objectBoundingBox">
      <feMorphology in="SourceAlpha" operator="dilate" radius="2.5" result="shadowSpreadOuter1"/>
      <feOffset dy="-25" in="shadowSpreadOuter1" result="shadowOffsetOuter1"/>
      <feGaussianBlur in="shadowOffsetOuter1" result="shadowBlurOuter1" stdDeviation="10"/>
      <feColorMatrix in="shadowBlurOuter1" values="0 0 0 0 0   0 0 0 0 0   0 0 0 0 0  0 0 0 0.12 0"/>
    </filter>
    <linearGradient id="gradient-f" x1="55.043%" x2="24.354%" y1="7.913%" y2="105.899%">
      <stop offset="0%" stop-color="#E952FF"/>
      <stop offset="100%" stop-color="#0707A9"/>
    </linearGradient>
    <path id="gradient-e" d="M-79.0117188,316.710937 C-79.0117188,316.710937 138.492187,209.777344 147.195312,168.398437 C155.898438,127.019531 321.867187,-20.1992188 321.867187,-20.1992188 L157.003906,-50 C157.003906,-50 182.816406,27.890625 93.8515625,57.8203125 C4.88671875,87.75 -89.0078125,201.382812 -94,230.628906 C-98.9921875,259.875 -79.0117188,316.710937 -79.0117188,316.710937 Z"/>
    <filter id="gradient-d" width="124%" height="127.3%" x="-12%" y="-20.5%" filterUnits="objectBoundingBox">
      <feMorphology in="SourceAlpha" operator="dilate" radius="2.5" result="shadowSpreadOuter1"/>
      <feOffset dy="-25" in="shadowSpreadOuter1" result="shadowOffsetOuter1"/>
      <feGaussianBlur in="shadowOffsetOuter1" result="shadowBlurOuter1" stdDeviation="10"/>
      <feColorMatrix in="shadowBlurOuter1" values="0 0 0 0 0   0 0 0 0 0   0 0 0 0 0  0 0 0 0.12 0"/>
    </filter>
    <linearGradient id="gradient-i" x1="-19.07%" x2="88.915%" y1="125.659%" y2="0%">
      <stop offset="0%" stop-color="#F76F55"/>
      <stop offset="100%" stop-color="#D359A8"/>
    </linearGradient>
    <path id="gradient-h" d="M413.394531,-26 C413.394531,-26 216.085937,-17.4921875 148.996094,134.367188 C81.90625,286.226563 -168,302.214844 -168,302.214844 L-125.164062,473.664062 C-125.164062,473.664062 129.148438,406.332031 199.667969,285.222656 C270.1875,164.113281 215.257813,112.910156 438.597656,20.9453125 C661.9375,-71.0195312 413.394531,-26 413.394531,-26 Z"/>
    <filter id="gradient-g" width="116.5%" x="-6.6%" y="-15%" filterUnits="objectBoundingBox">
      <feMorphology in="SourceAlpha" operator="dilate" radius="2.5" result="shadowSpreadOuter1"/>
      <feOffset dx="10" dy="-25" in="shadowSpreadOuter1" result="shadowOffsetOuter1"/>
      <feGaussianBlur in="shadowOffsetOuter1" result="shadowBlurOuter1" stdDeviation="10"/>
      <feColorMatrix in="shadowBlurOuter1" values="0 0 0 0 0   0 0 0 0 0   0 0 0 0 0  0 0 0 0.12 0"/>
    </filter>
    <linearGradient id="gradient-l" x1="45.507%" x2="70.663%" y1="53.802%" y2="13.853%">
      <stop offset="0%" stop-color="#F76F55"/>
      <stop offset="100%" stop-color="#D359A8"/>
    </linearGradient>
    <path id="gradient-k" d="M454.746232,-14.6001972 C454.746232,-14.6001972 315.097201,22.9397952 248.007357,174.79917 C180.917513,326.658545 -59.2377631,292.29228 -59.2377631,292.29228 L-24.6411207,505.867387 C-24.6411207,505.867387 229.671379,438.535356 300.190911,317.425981 C354.542263,224.083638 352.965831,212.732498 443.11216,151.774782 C533.258488,90.8170659 517.069842,99.1337031 539.120598,53.1486374 C630.894951,-138.239342 454.746232,-14.6001972 454.746232,-14.6001972 Z"/>
    <filter id="gradient-j" width="116%" height="117.9%" x="-8%" y="-13.4%" filterUnits="objectBoundingBox">
      <feMorphology in="SourceAlpha" operator="dilate" radius="2.5" result="shadowSpreadOuter1"/>
      <feOffset dy="-25" in="shadowSpreadOuter1" result="shadowOffsetOuter1"/>
      <feGaussianBlur in="shadowOffsetOuter1" result="shadowBlurOuter1" stdDeviation="10"/>
      <feColorMatrix in="shadowBlurOuter1" values="0 0 0 0 0   0 0 0 0 0   0 0 0 0 0  0 0 0 0.12 0"/>
    </filter>
    <linearGradient id="gradient-o" x1="7.979%" x2="69.333%" y1="98.413%" y2="43.569%">
      <stop offset="0%" stop-color="#3E69A5"/>
      <stop offset="100%" stop-color="#129A2B"/>
    </linearGradient>
    <path id="gradient-n" d="M-81.215971,429.518172 C-81.215971,429.518172 -52.2974552,571.559425 37.1947323,512.032082 C126.68692,452.504738 166.717953,445.040842 251.079944,278.782762 C284.875606,212.179285 343.623304,211.193275 396.251774,153.652056 C448.880244,96.1108373 484.875013,76.293288 492.605644,-28.2584688 C501.90267,-153.994701 637.583786,-11.03286 637.583786,-11.03286 C637.583786,-11.03286 596.868942,137.459327 495.622848,229.994484 C394.376754,322.52964 50.8494106,707.303077 50.8494106,707.303077 L-81.215971,429.518172 Z"/>
    <filter id="gradient-m" width="113.9%" height="112.7%" x="-7%" y="-9.5%" filterUnits="objectBoundingBox">
      <feMorphology in="SourceAlpha" operator="dilate" radius="2.5" result="shadowSpreadOuter1"/>
      <feOffset dy="-25" in="shadowSpreadOuter1" result="shadowOffsetOuter1"/>
      <feGaussianBlur in="shadowOffsetOuter1" result="shadowBlurOuter1" stdDeviation="10"/>
      <feColorMatrix in="shadowBlurOuter1" values="0 0 0 0 0   0 0 0 0 0   0 0 0 0 0  0 0 0 0.12 0"/>
    </filter>
    <linearGradient id="gradient-r" x1="4.58%" x2="63.977%" y1="99.175%" y2="19.178%">
      <stop offset="0%" stop-color="#E3E024"/>
      <stop offset="100%" stop-color="#27B30C"/>
    </linearGradient>
    <path id="gradient-q" d="M-65.1181952,592.163503 C-65.1181952,592.163503 -76.9385077,496.823659 12.5536798,437.296315 C102.045867,377.768971 130.377899,306.850492 206.202182,223.057249 C255.175169,168.937314 298.745542,155.467762 351.374012,97.9265436 C404.002482,40.3853249 439.997251,20.5677756 447.727882,-83.9839813 C457.024908,-209.720213 768.713386,27.8628055 768.713386,27.8628055 C768.713386,27.8628055 523.368212,51.1940332 346.169081,246.976262 C168.969951,442.758492 239.742443,717.126554 239.742443,717.126554"/>
    <filter id="gradient-p" width="112%" height="111.9%" x="-4.8%" y="-9%" filterUnits="objectBoundingBox">
      <feMorphology in="SourceAlpha" operator="dilate" radius="2.5" result="shadowSpreadOuter1"/>
      <feOffset dx="10" dy="-25" in="shadowSpreadOuter1" result="shadowOffsetOuter1"/>
      <feGaussianBlur in="shadowOffsetOuter1" result="shadowBlurOuter1" stdDeviation="10"/>
      <feColorMatrix in="shadowBlurOuter1" values="0 0 0 0 0   0 0 0 0 0   0 0 0 0 0  0 0 0 0.12 0"/>
    </filter>
    <linearGradient id="gradient-u" x1="24.811%" x2="71.595%" y1="86.62%" y2="15.233%">
      <stop offset="0%" stop-color="#0E757B"/>
      <stop offset="100%" stop-color="#9C5DFF"/>
    </linearGradient>
    <path id="gradient-t" d="M0,739.113281 C0,739.113281 222.209429,601.081226 272.014116,553.780444 C321.818804,506.479663 306.5,431.935951 466.617188,345.142982 C626.734375,258.350013 583.050781,194.084388 619.417969,69.1742318 C655.785156,-55.7359244 795.046875,-49.9585807 795.046875,-49.9585807 L959.09375,20.8187631 C959.09375,20.8187631 701.734375,324.846107 697.621094,330.326576 C693.507812,335.807044 251.25,766.861732 251.25,766.861732 L0,739.113281 Z"/>
    <filter id="gradient-s" width="110.4%" height="112.2%" x="-5.2%" y="-9.2%" filterUnits="objectBoundingBox">
      <feMorphology in="SourceAlpha" operator="dilate" radius="2.5" result="shadowSpreadOuter1"/>
      <feOffset dy="-25" in="shadowSpreadOuter1" result="shadowOffsetOuter1"/>
      <feGaussianBlur in="shadowOffsetOuter1" result="shadowBlurOuter1" stdDeviation="10"/>
      <feColorMatrix in="shadowBlurOuter1" values="0 0 0 0 0   0 0 0 0 0   0 0 0 0 0  0 0 0 0.12 0"/>
    </filter>
    <linearGradient id="gradient-x" x1="82.015%" x2="23.216%" y1="7.849%" y2="81.218%">
      <stop offset="0%" stop-color="#11B2A3"/>
      <stop offset="100%" stop-color="#4961E6"/>
    </linearGradient>
    <path id="gradient-w" d="M193.819433,823.900522 C193.819433,823.900522 346.19834,698.152072 379.04209,643.062228 C411.88584,587.972384 341.092871,445.691134 497.57334,437.308322 C654.053808,428.925509 616.397558,372.847384 652.764746,247.937228 C689.131933,123.027072 839.866308,8.6388036 839.866308,8.6388036 L1003.91318,79.4161474 C1003.91318,79.4161474 746.553808,383.443491 742.440527,388.92396 C738.327246,394.404429 296.069433,825.459116 296.069433,825.459116 L193.819433,823.900522 Z"/>
    <filter id="gradient-v" width="112.3%" height="112.2%" x="-6.2%" y="-9.2%" filterUnits="objectBoundingBox">
      <feMorphology in="SourceAlpha" operator="dilate" radius="2.5" result="shadowSpreadOuter1"/>
      <feOffset dy="-25" in="shadowSpreadOuter1" result="shadowOffsetOuter1"/>
      <feGaussianBlur in="shadowOffsetOuter1" result="shadowBlurOuter1" stdDeviation="10"/>
      <feColorMatrix in="shadowBlurOuter1" values="0 0 0 0 0   0 0 0 0 0   0 0 0 0 0  0 0 0 0.12 0"/>
    </filter>
    <linearGradient id="gradient-A" x1="13.27%" x2="40.317%" y1="94.832%" y2="34.566%">
      <stop offset="0%" stop-color="#4D5BB4"/>
      <stop offset="100%" stop-color="#2AAC37"/>
    </linearGradient>
    <path id="gradient-z" d="M454,661.628132 C454,661.628132 499.260211,518.799954 671.881982,425.777334 C844.503752,332.754714 849.788719,146.162851 925.652576,100.865721 C1001.51643,55.5685907 1282.09375,-52 1282.09375,-52 L515.422378,868 L454,661.628132 Z"/>
    <filter id="gradient-y" width="112.1%" height="110.9%" x="-6%" y="-8.2%" filterUnits="objectBoundingBox">
      <feMorphology in="SourceAlpha" operator="dilate" radius="2.5" result="shadowSpreadOuter1"/>
      <feOffset dy="-25" in="shadowSpreadOuter1" result="shadowOffsetOuter1"/>
      <feGaussianBlur in="shadowOffsetOuter1" result="shadowBlurOuter1" stdDeviation="10"/>
      <feColorMatrix in="shadowBlurOuter1" values="0 0 0 0 0   0 0 0 0 0   0 0 0 0 0  0 0 0 0.12 0"/>
    </filter>
    <linearGradient id="gradient-D" x1="67.649%" x2="46.248%" y1="17.127%" y2="54.715%">
      <stop offset="0%" stop-color="#4D5BB4"/>
      <stop offset="100%" stop-color="#2AAC37"/>
    </linearGradient>
    <path id="gradient-C" d="M407.516068,853.964257 C407.516068,853.964257 452.77628,711.136078 625.39805,618.113458 C798.01982,525.090838 803.304787,338.498975 879.168644,293.201845 C955.032502,247.904715 1235.60982,140.336124 1235.60982,140.336124 L468.938446,1060.33612 L407.516068,853.964257 Z"/>
    <filter id="gradient-B" width="112.1%" height="110.9%" x="-6%" y="-8.2%" filterUnits="objectBoundingBox">
      <feMorphology in="SourceAlpha" operator="dilate" radius="2.5" result="shadowSpreadOuter1"/>
      <feOffset dy="-25" in="shadowSpreadOuter1" result="shadowOffsetOuter1"/>
      <feGaussianBlur in="shadowOffsetOuter1" result="shadowBlurOuter1" stdDeviation="10"/>
      <feColorMatrix in="shadowBlurOuter1" values="0 0 0 0 0   0 0 0 0 0   0 0 0 0 0  0 0 0 0.12 0"/>
    </filter>
  </defs>
  <g fill="none" fill-rule="evenodd">
    <use fill="#000" filter="url(#gradient-a)" xlink:href="#gradient-b"/>
    <use fill="url(#gradient-c)" xlink:href="#gradient-b"/>
    <use fill="#000" filter="url(#gradient-d)" xlink:href="#gradient-e"/>
    <use fill="url(#gradient-f)" xlink:href="#gradient-e"/>
    <use fill="#000" filter="url(#gradient-g)" xlink:href="#gradient-h"/>
    <use fill="url(#gradient-i)" xlink:href="#gradient-h"/>
    <g transform="rotate(-4 253.186 225.99)">
      <use fill="#000" filter="url(#gradient-j)" xlink:href="#gradient-k"/>
      <use fill="url(#gradient-l)" xlink:href="#gradient-k"/>
    </g>
    <g transform="rotate(4 278.184 313.651)">
      <use fill="#000" filter="url(#gradient-m)" xlink:href="#gradient-n"/>
      <use fill="url(#gradient-o)" xlink:href="#gradient-n"/>
    </g>
    <g transform="rotate(178 351.54 298.215)">
      <use fill="#000" filter="url(#gradient-p)" xlink:href="#gradient-q"/>
      <use fill="url(#gradient-r)" xlink:href="#gradient-q"/>
    </g>
    <use fill="#000" filter="url(#gradient-s)" xlink:href="#gradient-t"/>
    <use fill="url(#gradient-u)" xlink:href="#gradient-t"/>
    <g transform="rotate(3 598.866 417.049)">
      <use fill="#000" filter="url(#gradient-v)" xlink:href="#gradient-w"/>
      <use fill="url(#gradient-x)" xlink:href="#gradient-w"/>
    </g>
    <g>
      <use fill="#000" filter="url(#gradient-y)" xlink:href="#gradient-z"/>
      <use fill="url(#gradient-A)" xlink:href="#gradient-z"/>
    </g>
    <g transform="rotate(5 821.563 600.336)">
      <use fill="#000" filter="url(#gradient-B)" xlink:href="#gradient-C"/>
      <use fill="url(#gradient-D)" xlink:href="#gradient-C"/>
    </g>
  </g>
</svg>
